# xmcd CD database file
# Copyright (C) 1996 Ti Kan
#
# Track frame offsets:
# 	182
# 	8232
# 	29580
# 	39465
# 	56887
# 	64562
# 	72217
# 	83162
# 	87882
# 	98965
# 	109525
# 	117655
# 	126035
# 	139917
# 	151547
#
# Disc length: 2186 seconds
#
# Revision: 1
# Processed by: cddbd v1.4b41PL1 Copyright (c) Steve Scherf et al.
# Submitted via: DiscPlay 3.4.1
#
DISCID=c408880f
DTITLE=Blind Willie Mc TELL - Last Session
DYEAR=1900
DGENRE=
TTITLE0=Baby it must be love
TTITLE1=The dyin' crapshooter's blues
TTITLE2=Don't forget it
TTITLE3=Kill it kid
TTITLE4=That will never happen no more
TTITLE5=Goodbye blues
TTITLE6=Salty dog
TTITLE7=Early life
TTITLE8=Beedle um bum
TTITLE9=A married man's a fool
TTITLE10=A to Z blues
TTITLE11=Wabash cannonball
TTITLE12=Pal of mine
TTITLE13=Kill it kid
TTITLE14=Broke down engine blues
EXTD=
EXTT0=
EXTT1=
EXTT2=
EXTT3=
EXTT4=
EXTT5=
EXTT6=
EXTT7=
EXTT8=
EXTT9=
EXTT10=
EXTT11=
EXTT12=
EXTT13=
EXTT14=
PLAYORDER=
